<svg xmlns="http://www.w3.org/2000/svg" xmlns:xlink="http://www.w3.org/1999/xlink" width="1200" zoomAndPan="magnify" viewBox="0 0 900 472.499986" height="630" preserveAspectRatio="xMidYMid meet" version="1.0"><defs><g/><clipPath id="24f724f4ab"><path d="M 17.457031 112.625 L 261.578125 112.625 L 261.578125 356.746094 L 17.457031 356.746094 Z M 17.457031 112.625 " clip-rule="nonzero"/></clipPath></defs><g clip-path="url(#24f724f4ab)"><path fill="#ffffff" d="M 261.578125 234.6875 C 261.578125 236.683594 261.527344 238.679688 261.429688 240.675781 C 261.332031 242.671875 261.1875 244.664062 260.988281 246.652344 C 260.792969 248.640625 260.550781 250.621094 260.257812 252.597656 C 259.964844 254.574219 259.621094 256.539062 259.230469 258.5 C 258.84375 260.457031 258.40625 262.40625 257.917969 264.34375 C 257.433594 266.28125 256.902344 268.207031 256.320312 270.121094 C 255.742188 272.03125 255.117188 273.925781 254.441406 275.808594 C 253.769531 277.6875 253.050781 279.550781 252.285156 281.398438 C 251.523438 283.242188 250.710938 285.070312 249.859375 286.875 C 249.003906 288.679688 248.105469 290.464844 247.164062 292.226562 C 246.222656 293.988281 245.238281 295.726562 244.210938 297.4375 C 243.183594 299.152344 242.117188 300.839844 241.007812 302.5 C 239.898438 304.160156 238.746094 305.792969 237.558594 307.398438 C 236.367188 309.003906 235.136719 310.578125 233.871094 312.121094 C 232.605469 313.664062 231.300781 315.175781 229.957031 316.65625 C 228.617188 318.136719 227.238281 319.585938 225.828125 320.996094 C 224.414062 322.410156 222.96875 323.785156 221.488281 325.128906 C 220.007812 326.46875 218.496094 327.773438 216.953125 329.039062 C 215.40625 330.308594 213.832031 331.535156 212.230469 332.726562 C 210.625 333.917969 208.992188 335.066406 207.332031 336.175781 C 205.667969 337.285156 203.980469 338.355469 202.269531 339.382812 C 200.554688 340.410156 198.816406 341.394531 197.054688 342.335938 C 195.292969 343.277344 193.511719 344.175781 191.703125 345.027344 C 189.898438 345.882812 188.074219 346.691406 186.226562 347.457031 C 184.382812 348.21875 182.519531 348.9375 180.636719 349.613281 C 178.757812 350.285156 176.859375 350.910156 174.949219 351.492188 C 173.039062 352.070312 171.113281 352.605469 169.175781 353.089844 C 167.238281 353.574219 165.289062 354.011719 163.332031 354.402344 C 161.371094 354.792969 159.402344 355.132812 157.425781 355.425781 C 155.453125 355.71875 153.46875 355.964844 151.480469 356.160156 C 149.492188 356.355469 147.5 356.503906 145.507812 356.601562 C 143.511719 356.699219 141.515625 356.746094 139.515625 356.746094 C 137.519531 356.746094 135.523438 356.699219 133.527344 356.601562 C 131.53125 356.503906 129.542969 356.355469 127.554688 356.160156 C 125.566406 355.964844 123.582031 355.71875 121.605469 355.425781 C 119.632812 355.132812 117.664062 354.792969 115.703125 354.402344 C 113.746094 354.011719 111.796875 353.574219 109.859375 353.089844 C 107.921875 352.605469 105.996094 352.070312 104.085938 351.492188 C 102.171875 350.910156 100.277344 350.285156 98.394531 349.613281 C 96.515625 348.9375 94.652344 348.21875 92.808594 347.457031 C 90.960938 346.691406 89.136719 345.882812 87.328125 345.027344 C 85.523438 344.175781 83.742188 343.277344 81.976562 342.335938 C 80.214844 341.394531 78.480469 340.410156 76.765625 339.382812 C 75.050781 338.355469 73.363281 337.285156 71.703125 336.175781 C 70.042969 335.066406 68.410156 333.917969 66.804688 332.726562 C 65.203125 331.535156 63.628906 330.308594 62.082031 329.039062 C 60.539062 327.773438 59.027344 326.46875 57.546875 325.128906 C 56.066406 323.785156 54.621094 322.410156 53.207031 320.996094 C 51.796875 319.585938 50.417969 318.136719 49.078125 316.65625 C 47.734375 315.175781 46.429688 313.664062 45.164062 312.121094 C 43.894531 310.578125 42.667969 309.003906 41.476562 307.398438 C 40.289062 305.792969 39.136719 304.160156 38.027344 302.5 C 36.917969 300.839844 35.851562 299.152344 34.824219 297.4375 C 33.796875 295.726562 32.8125 293.988281 31.871094 292.226562 C 30.929688 290.464844 30.03125 288.679688 29.175781 286.875 C 28.320312 285.070312 27.511719 283.242188 26.75 281.398438 C 25.984375 279.550781 25.265625 277.6875 24.59375 275.808594 C 23.917969 273.925781 23.292969 272.03125 22.714844 270.121094 C 22.132812 268.207031 21.601562 266.28125 21.113281 264.34375 C 20.628906 262.40625 20.191406 260.457031 19.800781 258.5 C 19.414062 256.539062 19.070312 254.574219 18.777344 252.597656 C 18.484375 250.621094 18.242188 248.640625 18.042969 246.652344 C 17.847656 244.664062 17.703125 242.671875 17.605469 240.675781 C 17.507812 238.679688 17.457031 236.683594 17.457031 234.6875 C 17.457031 232.6875 17.507812 230.691406 17.605469 228.699219 C 17.703125 226.703125 17.847656 224.710938 18.042969 222.722656 C 18.242188 220.734375 18.484375 218.753906 18.777344 216.777344 C 19.070312 214.800781 19.414062 212.832031 19.800781 210.875 C 20.191406 208.914062 20.628906 206.964844 21.113281 205.027344 C 21.601562 203.089844 22.132812 201.167969 22.714844 199.253906 C 23.292969 197.34375 23.917969 195.445312 24.59375 193.566406 C 25.265625 191.683594 25.984375 189.820312 26.75 187.976562 C 27.511719 186.132812 28.320312 184.304688 29.175781 182.5 C 30.03125 180.695312 30.929688 178.910156 31.871094 177.148438 C 32.8125 175.386719 33.796875 173.648438 34.824219 171.933594 C 35.851562 170.222656 36.917969 168.535156 38.027344 166.875 C 39.136719 165.210938 40.289062 163.582031 41.476562 161.976562 C 42.667969 160.371094 43.894531 158.796875 45.164062 157.253906 C 46.429688 155.707031 47.734375 154.195312 49.078125 152.714844 C 50.417969 151.234375 51.796875 149.789062 53.207031 148.378906 C 54.621094 146.964844 56.066406 145.585938 57.546875 144.246094 C 59.027344 142.90625 60.539062 141.601562 62.082031 140.332031 C 63.628906 139.066406 65.203125 137.835938 66.804688 136.648438 C 68.410156 135.457031 70.042969 134.308594 71.703125 133.199219 C 73.363281 132.085938 75.050781 131.019531 76.765625 129.992188 C 78.480469 128.964844 80.214844 127.980469 81.976562 127.039062 C 83.742188 126.097656 85.523438 125.199219 87.328125 124.34375 C 89.136719 123.492188 90.960938 122.683594 92.808594 121.917969 C 94.652344 121.152344 96.515625 120.433594 98.394531 119.761719 C 100.277344 119.089844 102.171875 118.460938 104.085938 117.882812 C 105.996094 117.300781 107.921875 116.769531 109.859375 116.285156 C 111.796875 115.800781 113.746094 115.363281 115.703125 114.972656 C 117.664062 114.582031 119.632812 114.242188 121.605469 113.949219 C 123.582031 113.65625 125.566406 113.410156 127.554688 113.214844 C 129.542969 113.019531 131.53125 112.871094 133.527344 112.773438 C 135.523438 112.675781 137.519531 112.625 139.515625 112.625 C 141.515625 112.625 143.511719 112.675781 145.507812 112.773438 C 147.5 112.871094 149.492188 113.019531 151.480469 113.214844 C 153.46875 113.410156 155.453125 113.65625 157.425781 113.949219 C 159.402344 114.242188 161.371094 114.582031 163.332031 114.972656 C 165.289062 115.363281 167.238281 115.800781 169.175781 116.285156 C 171.113281 116.769531 173.039062 117.300781 174.949219 117.882812 C 176.859375 118.460938 178.757812 119.089844 180.636719 119.761719 C 182.519531 120.433594 184.382812 121.152344 186.226562 121.917969 C 188.074219 122.683594 189.898438 123.492188 191.703125 124.34375 C 193.511719 125.199219 195.292969 126.097656 197.054688 127.039062 C 198.816406 127.980469 200.554688 128.964844 202.269531 129.992188 C 203.980469 131.019531 205.667969 132.085938 207.332031 133.199219 C 208.992188 134.308594 210.625 135.457031 212.230469 136.648438 C 213.832031 137.835938 215.40625 139.066406 216.953125 140.332031 C 218.496094 141.601562 220.007812 142.90625 221.488281 144.246094 C 222.96875 145.585938 224.414062 146.964844 225.828125 148.378906 C 227.238281 149.789062 228.617188 151.234375 229.957031 152.714844 C 231.300781 154.195312 232.605469 155.707031 233.871094 157.253906 C 235.136719 158.796875 236.367188 160.371094 237.558594 161.976562 C 238.746094 163.582031 239.898438 165.210938 241.007812 166.875 C 242.117188 168.535156 243.183594 170.222656 244.210938 171.933594 C 245.238281 173.648438 246.222656 175.386719 247.164062 177.148438 C 248.105469 178.910156 249.003906 180.695312 249.859375 182.5 C 250.710938 184.304688 251.523438 186.132812 252.285156 187.976562 C 253.050781 189.820312 253.769531 191.683594 254.441406 193.566406 C 255.117188 195.445312 255.742188 197.34375 256.320312 199.253906 C 256.902344 201.167969 257.433594 203.089844 257.917969 205.027344 C 258.40625 206.964844 258.84375 208.914062 259.230469 210.875 C 259.621094 212.832031 259.964844 214.800781 260.257812 216.777344 C 260.550781 218.753906 260.792969 220.734375 260.988281 222.722656 C 261.1875 224.710938 261.332031 226.703125 261.429688 228.699219 C 261.527344 230.691406 261.578125 232.6875 261.578125 234.6875 Z M 261.578125 234.6875 " fill-opacity="1" fill-rule="nonzero"/></g><path fill="#ee050b" d="M 142.347656 301.050781 C 125.652344 301.050781 112.074219 287.46875 112.074219 270.773438 C 112.074219 254.082031 125.65625 240.5 142.347656 240.5 C 159.042969 240.5 172.625 254.082031 172.625 270.773438 C 172.625 287.46875 159.042969 301.050781 142.347656 301.050781 Z M 137.109375 288.242188 C 136.855469 288.242188 136.597656 288.183594 136.359375 288.066406 C 135.773438 287.78125 135.402344 287.183594 135.402344 286.53125 L 135.402344 255.019531 C 135.402344 254.367188 135.773438 253.769531 136.359375 253.484375 C 136.949219 253.199219 137.644531 253.269531 138.160156 253.671875 L 158.398438 269.425781 C 158.8125 269.75 159.054688 270.246094 159.054688 270.773438 C 159.054688 271.304688 158.8125 271.796875 158.398438 272.121094 L 138.160156 287.878906 C 137.855469 288.117188 137.484375 288.242188 137.109375 288.242188 Z M 137.109375 288.242188 " fill-opacity="1" fill-rule="evenodd"/><path fill="#ee050b" d="M 213.351562 204.507812 C 211.621094 204.507812 210.21875 203.101562 210.21875 201.375 C 210.222656 194.214844 207.4375 187.492188 202.375 182.433594 C 197.316406 177.371094 190.59375 174.589844 183.4375 174.589844 C 181.707031 174.589844 180.304688 173.183594 180.304688 171.457031 C 180.304688 169.726562 181.707031 168.324219 183.4375 168.324219 C 192.261719 168.324219 200.566406 171.761719 206.804688 178.003906 C 213.046875 184.242188 216.492188 192.546875 216.488281 201.375 C 216.484375 203.101562 215.082031 204.507812 213.351562 204.507812 Z M 202.90625 204.503906 C 201.179688 204.503906 199.773438 203.101562 199.773438 201.371094 C 199.773438 197.007812 198.078125 192.90625 194.988281 189.820312 C 191.902344 186.734375 187.804688 185.035156 183.4375 185.035156 C 181.707031 185.035156 180.304688 183.632812 180.304688 181.902344 C 180.304688 180.171875 181.707031 178.769531 183.4375 178.769531 C 189.472656 178.769531 195.152344 181.125 199.421875 185.390625 C 203.6875 189.65625 206.042969 195.339844 206.039062 201.375 C 206.039062 203.101562 204.636719 204.503906 202.90625 204.503906 Z M 193.421875 204.503906 C 191.695312 204.503906 190.289062 203.101562 190.289062 201.371094 C 190.289062 199.539062 189.578125 197.820312 188.28125 196.523438 C 186.988281 195.226562 185.269531 194.515625 183.4375 194.515625 C 181.707031 194.515625 180.304688 193.113281 180.304688 191.382812 C 180.304688 189.65625 181.707031 188.25 183.4375 188.25 C 186.9375 188.25 190.238281 189.617188 192.714844 192.09375 C 195.191406 194.570312 196.558594 197.871094 196.558594 201.371094 C 196.558594 203.101562 195.152344 204.503906 193.421875 204.503906 Z M 193.421875 204.503906 " fill-opacity="1" fill-rule="evenodd"/><path fill="#ee050b" d="M 190.285156 272.484375 L 175.429688 272.484375 C 175.457031 271.917969 175.472656 271.347656 175.472656 270.773438 C 175.472656 252.507812 160.613281 237.652344 142.347656 237.652344 C 124.082031 237.652344 109.226562 252.507812 109.226562 270.773438 C 109.226562 271.347656 109.238281 271.917969 109.269531 272.484375 L 98.363281 272.484375 C 82.414062 272.484375 69.441406 259.507812 69.441406 243.558594 C 69.441406 227.613281 82.414062 214.640625 98.363281 214.640625 L 99.4375 214.640625 C 99.339844 213.664062 99.292969 212.683594 99.292969 211.707031 C 99.292969 195.46875 112.503906 182.257812 128.742188 182.257812 C 141.246094 182.257812 152.414062 190.253906 156.523438 201.917969 C 159.527344 200.910156 162.664062 200.398438 165.871094 200.398438 C 179.472656 200.398438 191.320312 209.789062 194.492188 222.894531 C 206.414062 224.925781 215.257812 235.300781 215.257812 247.507812 C 215.257812 261.277344 204.054688 272.484375 190.285156 272.484375 Z M 190.285156 272.484375 " fill-opacity="1" fill-rule="evenodd"/><path fill="#09e7ec" d="M 135.457031 301.050781 C 118.761719 301.050781 105.179688 287.46875 105.179688 270.773438 C 105.179688 254.082031 118.761719 240.5 135.457031 240.5 C 152.148438 240.5 165.730469 254.082031 165.730469 270.773438 C 165.730469 287.46875 152.148438 301.050781 135.457031 301.050781 Z M 130.21875 288.242188 C 129.960938 288.242188 129.707031 288.183594 129.46875 288.066406 C 128.882812 287.78125 128.507812 287.183594 128.507812 286.53125 L 128.507812 255.019531 C 128.507812 254.367188 128.878906 253.769531 129.46875 253.484375 C 130.054688 253.199219 130.753906 253.269531 131.269531 253.671875 L 151.503906 269.425781 C 151.921875 269.75 152.164062 270.246094 152.164062 270.773438 C 152.164062 271.304688 151.921875 271.796875 151.503906 272.121094 L 131.269531 287.878906 C 130.960938 288.117188 130.589844 288.242188 130.21875 288.242188 Z M 130.21875 288.242188 " fill-opacity="1" fill-rule="evenodd"/><path fill="#09e7ec" d="M 206.460938 204.507812 C 204.730469 204.507812 203.328125 203.101562 203.328125 201.375 C 203.328125 194.214844 200.542969 187.492188 195.484375 182.433594 C 190.421875 177.371094 183.699219 174.589844 176.542969 174.589844 C 174.816406 174.589844 173.410156 173.183594 173.410156 171.457031 C 173.410156 169.726562 174.816406 168.324219 176.542969 168.324219 C 185.367188 168.324219 193.675781 171.761719 199.914062 178.003906 C 206.152344 184.242188 209.597656 192.546875 209.59375 201.375 C 209.59375 203.101562 208.1875 204.507812 206.460938 204.507812 Z M 196.015625 204.503906 C 194.285156 204.503906 192.882812 203.101562 192.882812 201.371094 C 192.882812 197.007812 191.183594 192.90625 188.097656 189.820312 C 185.007812 186.734375 180.910156 185.035156 176.542969 185.035156 C 174.816406 185.035156 173.410156 183.632812 173.410156 181.902344 C 173.410156 180.171875 174.816406 178.769531 176.542969 178.769531 C 182.578125 178.769531 188.261719 181.125 192.527344 185.390625 C 196.792969 189.65625 199.152344 195.339844 199.148438 201.375 C 199.148438 203.101562 197.742188 204.503906 196.015625 204.503906 Z M 186.53125 204.503906 C 184.800781 204.503906 183.398438 203.101562 183.398438 201.371094 C 183.398438 199.539062 182.6875 197.820312 181.390625 196.523438 C 180.09375 195.226562 178.378906 194.515625 176.542969 194.515625 C 174.816406 194.515625 173.410156 193.113281 173.410156 191.382812 C 173.410156 189.65625 174.816406 188.25 176.542969 188.25 C 180.046875 188.25 183.34375 189.617188 185.820312 192.09375 C 188.296875 194.570312 189.664062 197.871094 189.664062 201.371094 C 189.664062 203.101562 188.261719 204.503906 186.53125 204.503906 Z M 186.53125 204.503906 " fill-opacity="1" fill-rule="evenodd"/><path fill="#09e7ec" d="M 183.390625 272.484375 L 168.535156 272.484375 C 168.5625 271.917969 168.578125 271.347656 168.578125 270.773438 C 168.578125 252.507812 153.722656 237.652344 135.457031 237.652344 C 117.191406 237.652344 102.332031 252.507812 102.332031 270.773438 C 102.332031 271.347656 102.347656 271.917969 102.375 272.484375 L 91.472656 272.484375 C 75.523438 272.484375 62.546875 259.507812 62.546875 243.558594 C 62.546875 227.613281 75.523438 214.640625 91.472656 214.640625 L 92.542969 214.640625 C 92.449219 213.664062 92.398438 212.683594 92.398438 211.707031 C 92.398438 195.46875 105.609375 182.257812 121.847656 182.257812 C 134.351562 182.257812 145.523438 190.253906 149.632812 201.917969 C 152.636719 200.910156 155.773438 200.398438 158.980469 200.398438 C 172.582031 200.398438 184.425781 209.789062 187.601562 222.894531 C 199.519531 224.925781 208.363281 235.300781 208.363281 247.507812 C 208.363281 261.277344 197.160156 272.484375 183.390625 272.484375 Z M 183.390625 272.484375 " fill-opacity="1" fill-rule="evenodd"/><path fill="#04020d" d="M 138.902344 301.050781 C 122.207031 301.050781 108.625 287.46875 108.625 270.773438 C 108.625 254.082031 122.207031 240.5 138.902344 240.5 C 155.59375 240.5 169.175781 254.082031 169.175781 270.773438 C 169.175781 287.46875 155.597656 301.050781 138.902344 301.050781 Z M 133.664062 288.242188 C 133.410156 288.242188 133.152344 288.183594 132.914062 288.066406 C 132.328125 287.78125 131.957031 287.183594 131.957031 286.53125 L 131.957031 255.019531 C 131.957031 254.367188 132.328125 253.769531 132.914062 253.484375 C 133.5 253.199219 134.199219 253.269531 134.714844 253.671875 L 154.949219 269.425781 C 155.367188 269.75 155.609375 270.246094 155.609375 270.773438 C 155.609375 271.304688 155.367188 271.796875 154.949219 272.121094 L 134.714844 287.878906 C 134.40625 288.117188 134.039062 288.242188 133.664062 288.242188 Z M 133.664062 288.242188 " fill-opacity="1" fill-rule="evenodd"/><path fill="#04020d" d="M 209.90625 204.507812 C 208.175781 204.507812 206.773438 203.101562 206.773438 201.375 C 206.773438 194.214844 203.988281 187.492188 198.929688 182.433594 C 193.867188 177.371094 187.144531 174.589844 179.988281 174.589844 C 178.261719 174.589844 176.855469 173.183594 176.855469 171.457031 C 176.855469 169.726562 178.261719 168.324219 179.988281 168.324219 C 188.8125 168.324219 197.121094 171.761719 203.359375 178.003906 C 209.597656 184.242188 213.046875 192.546875 213.039062 201.375 C 213.039062 203.101562 211.636719 204.507812 209.90625 204.507812 Z M 199.460938 204.503906 C 197.730469 204.503906 196.328125 203.101562 196.328125 201.371094 C 196.328125 197.007812 194.628906 192.90625 191.542969 189.820312 C 188.457031 186.734375 184.359375 185.035156 179.992188 185.035156 C 178.261719 185.035156 176.859375 183.632812 176.859375 181.902344 C 176.859375 180.171875 178.261719 178.769531 179.992188 178.769531 C 186.027344 178.769531 191.707031 181.125 195.972656 185.390625 C 200.238281 189.65625 202.597656 195.339844 202.59375 201.375 C 202.59375 203.101562 201.191406 204.503906 199.460938 204.503906 Z M 189.976562 204.503906 C 188.246094 204.503906 186.84375 203.101562 186.84375 201.371094 C 186.84375 199.539062 186.132812 197.820312 184.835938 196.523438 C 183.539062 195.226562 181.824219 194.515625 179.988281 194.515625 C 178.261719 194.515625 176.855469 193.113281 176.855469 191.382812 C 176.855469 189.65625 178.261719 188.25 179.988281 188.25 C 183.492188 188.25 186.792969 189.617188 189.269531 192.09375 C 191.742188 194.570312 193.113281 197.871094 193.109375 201.371094 C 193.109375 203.101562 191.707031 204.503906 189.976562 204.503906 Z M 189.976562 204.503906 " fill-opacity="1" fill-rule="evenodd"/><path fill="#04020d" d="M 186.835938 272.484375 L 171.980469 272.484375 C 172.011719 271.917969 172.023438 271.347656 172.023438 270.773438 C 172.023438 252.507812 157.167969 237.652344 138.902344 237.652344 C 120.636719 237.652344 105.78125 252.507812 105.78125 270.773438 C 105.78125 271.347656 105.792969 271.917969 105.824219 272.484375 L 94.917969 272.484375 C 78.96875 272.484375 65.996094 259.507812 65.996094 243.558594 C 65.996094 227.613281 78.96875 214.640625 94.917969 214.640625 L 95.992188 214.640625 C 95.894531 213.664062 95.847656 212.683594 95.847656 211.707031 C 95.847656 195.46875 109.058594 182.257812 125.296875 182.257812 C 137.796875 182.257812 148.96875 190.253906 153.078125 201.917969 C 156.082031 200.910156 159.21875 200.398438 162.425781 200.398438 C 176.027344 200.398438 187.875 209.789062 191.046875 222.894531 C 202.96875 224.925781 211.8125 235.300781 211.8125 247.507812 C 211.8125 261.277344 200.605469 272.484375 186.835938 272.484375 Z M 186.835938 272.484375 " fill-opacity="1" fill-rule="evenodd"/><g fill="#ff00ff" fill-opacity="1"><g transform="translate(264.64874, 305.366994)"><g><path d="M 79.953125 -77.828125 C 76.691406 -79.785156 73.328125 -81.523438 69.859375 -83.046875 C 66.921875 -84.347656 63.632812 -85.566406 60 -86.703125 C 56.363281 -87.847656 52.8125 -88.421875 49.34375 -88.421875 C 46.519531 -88.421875 44.265625 -87.984375 42.578125 -87.109375 C 40.898438 -86.242188 40.0625 -84.78125 40.0625 -82.71875 C 40.0625 -81.195312 40.546875 -79.945312 41.515625 -78.96875 C 42.492188 -77.988281 43.90625 -77.09375 45.75 -76.28125 C 47.59375 -75.46875 49.84375 -74.679688 52.5 -73.921875 C 55.164062 -73.160156 58.179688 -72.238281 61.546875 -71.15625 C 66.867188 -69.53125 71.671875 -67.738281 75.953125 -65.78125 C 80.242188 -63.832031 83.910156 -61.523438 86.953125 -58.859375 C 89.992188 -56.203125 92.328125 -52.972656 93.953125 -49.171875 C 95.578125 -45.367188 96.390625 -40.753906 96.390625 -35.328125 C 96.390625 -28.378906 95.113281 -22.546875 92.5625 -17.828125 C 90.007812 -13.109375 86.644531 -9.335938 82.46875 -6.515625 C 78.289062 -3.691406 73.566406 -1.65625 68.296875 -0.40625 C 63.035156 0.84375 57.75 1.46875 52.4375 1.46875 C 48.195312 1.46875 43.851562 1.140625 39.40625 0.484375 C 34.957031 -0.160156 30.535156 -1.082031 26.140625 -2.28125 C 21.742188 -3.476562 17.507812 -4.890625 13.4375 -6.515625 C 9.363281 -8.140625 5.585938 -9.984375 2.109375 -12.046875 L 15.796875 -39.890625 C 19.597656 -37.503906 23.5625 -35.390625 27.6875 -33.546875 C 31.15625 -31.910156 35.085938 -30.441406 39.484375 -29.140625 C 43.878906 -27.835938 48.359375 -27.1875 52.921875 -27.1875 C 56.390625 -27.1875 58.800781 -27.644531 60.15625 -28.5625 C 61.519531 -29.488281 62.203125 -30.710938 62.203125 -32.234375 C 62.203125 -33.867188 61.519531 -35.253906 60.15625 -36.390625 C 58.800781 -37.535156 56.929688 -38.539062 54.546875 -39.40625 C 52.160156 -40.269531 49.421875 -41.132812 46.328125 -42 C 43.234375 -42.875 39.945312 -43.910156 36.46875 -45.109375 C 31.375 -46.835938 26.976562 -48.707031 23.28125 -50.71875 C 19.59375 -52.726562 16.550781 -55.007812 14.15625 -57.5625 C 11.769531 -60.113281 10.007812 -63.015625 8.875 -66.265625 C 7.738281 -69.523438 7.171875 -73.269531 7.171875 -77.5 C 7.171875 -83.90625 8.335938 -89.550781 10.671875 -94.4375 C 13.003906 -99.320312 16.175781 -103.390625 20.1875 -106.640625 C 24.207031 -109.898438 28.796875 -112.367188 33.953125 -114.046875 C 39.109375 -115.734375 44.5625 -116.578125 50.3125 -116.578125 C 54.550781 -116.578125 58.675781 -116.171875 62.6875 -115.359375 C 66.707031 -114.546875 70.585938 -113.515625 74.328125 -112.265625 C 78.078125 -111.015625 81.578125 -109.65625 84.828125 -108.1875 C 88.085938 -106.726562 91.019531 -105.347656 93.625 -104.046875 Z M 79.953125 -77.828125 "/></g></g></g><g fill="#ff00ff" fill-opacity="1"><g transform="translate(365.110217, 305.366994)"><g><path d="M 33.046875 1.625 C 28.816406 1.625 24.851562 0.921875 21.15625 -0.484375 C 17.46875 -1.898438 14.296875 -3.828125 11.640625 -6.265625 C 8.984375 -8.710938 6.894531 -11.617188 5.375 -14.984375 C 3.851562 -18.347656 3.09375 -21.984375 3.09375 -25.890625 C 3.09375 -30.234375 4.015625 -34.195312 5.859375 -37.78125 C 7.703125 -41.363281 10.253906 -44.457031 13.515625 -47.0625 C 16.773438 -49.664062 20.65625 -51.671875 25.15625 -53.078125 C 29.664062 -54.492188 34.632812 -55.203125 40.0625 -55.203125 C 47.007812 -55.203125 52.757812 -54.113281 57.3125 -51.9375 L 57.3125 -54.546875 C 57.3125 -58.566406 56.144531 -61.550781 53.8125 -63.5 C 51.476562 -65.457031 47.707031 -66.4375 42.5 -66.4375 C 37.613281 -66.4375 33.109375 -65.648438 28.984375 -64.078125 C 24.859375 -62.503906 20.515625 -60.195312 15.953125 -57.15625 L 7 -76.359375 C 18.289062 -83.640625 31.15625 -87.28125 45.59375 -87.28125 C 59.269531 -87.28125 69.796875 -84.238281 77.171875 -78.15625 C 84.554688 -72.082031 88.25 -62.960938 88.25 -50.796875 L 88.25 -34.1875 C 88.25 -31.257812 88.789062 -29.222656 89.875 -28.078125 C 90.96875 -26.941406 92.925781 -26.265625 95.75 -26.046875 L 95.75 0 C 92.925781 0.539062 90.265625 0.945312 87.765625 1.21875 C 85.265625 1.488281 83.039062 1.625 81.09375 1.625 C 75.550781 1.625 71.34375 0.625 68.46875 -1.375 C 65.59375 -3.382812 63.722656 -6.347656 62.859375 -10.265625 L 62.203125 -13.359375 C 58.398438 -8.472656 54 -4.753906 49 -2.203125 C 44.007812 0.347656 38.691406 1.625 33.046875 1.625 Z M 42.328125 -20.515625 C 44.179688 -20.515625 46.082031 -20.8125 48.03125 -21.40625 C 49.988281 -22.007812 51.726562 -22.796875 53.25 -23.765625 C 54.4375 -24.640625 55.410156 -25.59375 56.171875 -26.625 C 56.929688 -27.65625 57.3125 -28.710938 57.3125 -29.796875 L 57.3125 -36.140625 C 55.46875 -36.796875 53.457031 -37.335938 51.28125 -37.765625 C 49.113281 -38.203125 47.160156 -38.421875 45.421875 -38.421875 C 41.628906 -38.421875 38.484375 -37.5 35.984375 -35.65625 C 33.484375 -33.8125 32.234375 -31.476562 32.234375 -28.65625 C 32.234375 -26.269531 33.179688 -24.316406 35.078125 -22.796875 C 36.984375 -21.273438 39.398438 -20.515625 42.328125 -20.515625 Z M 42.328125 -20.515625 "/></g></g></g><g fill="#ff00ff" fill-opacity="1"><g transform="translate(463.455006, 305.366994)"><g><path d="M 93.953125 0 L 63.015625 0 L 63.015625 -48.203125 C 63.015625 -52.429688 62.0625 -55.492188 60.15625 -57.390625 C 58.257812 -59.296875 56.066406 -60.25 53.578125 -60.25 C 50.960938 -60.25 48.191406 -59.109375 45.265625 -56.828125 C 42.335938 -54.546875 40.164062 -51.613281 38.75 -48.03125 L 38.75 0 L 7.8125 0 L 7.8125 -85.640625 L 35.65625 -85.640625 L 35.65625 -72.953125 C 38.695312 -77.617188 42.957031 -81.171875 48.4375 -83.609375 C 53.925781 -86.054688 60.414062 -87.28125 67.90625 -87.28125 C 73.757812 -87.28125 78.394531 -86.21875 81.8125 -84.09375 C 85.238281 -81.976562 87.847656 -79.347656 89.640625 -76.203125 C 91.429688 -73.054688 92.597656 -69.691406 93.140625 -66.109375 C 93.679688 -62.523438 93.953125 -59.269531 93.953125 -56.34375 Z M 93.953125 0 "/></g></g></g><g fill="#ff00ff" fill-opacity="1"><g transform="translate(564.567793, 305.366994)"><g><path d="M 43.640625 1.625 C 37.773438 1.625 32.375 0.539062 27.4375 -1.625 C 22.5 -3.800781 18.238281 -6.867188 14.65625 -10.828125 C 11.070312 -14.785156 8.273438 -19.503906 6.265625 -24.984375 C 4.253906 -30.472656 3.25 -36.472656 3.25 -42.984375 C 3.25 -49.285156 4.171875 -55.148438 6.015625 -60.578125 C 7.867188 -66.003906 10.445312 -70.695312 13.75 -74.65625 C 17.0625 -78.613281 21 -81.707031 25.5625 -83.9375 C 30.125 -86.164062 35.171875 -87.28125 40.703125 -87.28125 C 46.242188 -87.28125 51.320312 -86.03125 55.9375 -83.53125 C 60.550781 -81.03125 64.101562 -77.503906 66.59375 -72.953125 L 66.59375 -118.859375 L 97.53125 -118.859375 L 97.53125 -34.1875 C 97.53125 -31.257812 98.070312 -29.222656 99.15625 -28.078125 C 100.25 -26.941406 102.207031 -26.265625 105.03125 -26.046875 L 105.03125 0 C 101.875 0.539062 99.101562 0.945312 96.71875 1.21875 C 94.332031 1.488281 92.21875 1.625 90.375 1.625 C 79.84375 1.625 73.765625 -2.335938 72.140625 -10.265625 L 71.484375 -13.359375 C 68.546875 -8.140625 64.582031 -4.335938 59.59375 -1.953125 C 54.601562 0.429688 49.285156 1.625 43.640625 1.625 Z M 52.109375 -24.421875 C 57.753906 -24.421875 62.640625 -27.351562 66.765625 -33.21875 L 66.765625 -48.515625 C 65.242188 -52.316406 63.015625 -55.382812 60.078125 -57.71875 C 57.148438 -60.050781 54.054688 -61.21875 50.796875 -61.21875 C 48.523438 -61.21875 46.4375 -60.726562 44.53125 -59.75 C 42.632812 -58.78125 41.003906 -57.425781 39.640625 -55.6875 C 38.285156 -53.945312 37.203125 -51.9375 36.390625 -49.65625 C 35.578125 -47.382812 35.171875 -44.941406 35.171875 -42.328125 C 35.171875 -36.898438 36.71875 -32.554688 39.8125 -29.296875 C 42.90625 -26.046875 47.003906 -24.421875 52.109375 -24.421875 Z M 52.109375 -24.421875 "/></g></g></g><g fill="#ff00ff" fill-opacity="1"><g transform="translate(673.984515, 305.366994)"><g><path d="M 7.8125 0 L 7.8125 -85.640625 L 38.75 -85.640625 L 38.75 0 Z M 7.8125 -92.8125 L 7.8125 -118.859375 L 38.75 -118.859375 L 38.75 -92.8125 Z M 7.8125 -92.8125 "/></g></g></g><g fill="#ff00ff" fill-opacity="1"><g transform="translate(720.55176, 305.366994)"><g><path d="M 14.328125 0 L 14.328125 -52.4375 L 3.75 -52.4375 L 3.75 -75.71875 L 14.328125 -75.71875 L 14.328125 -85 C 14.328125 -90.3125 15.085938 -95.164062 16.609375 -99.5625 C 18.128906 -103.957031 20.242188 -107.703125 22.953125 -110.796875 C 25.671875 -113.890625 28.957031 -116.28125 32.8125 -117.96875 C 36.664062 -119.65625 40.976562 -120.5 45.75 -120.5 C 52.914062 -120.5 60.84375 -118.867188 69.53125 -115.609375 L 64.3125 -92.15625 C 62.46875 -92.8125 60.488281 -93.351562 58.375 -93.78125 C 56.257812 -94.21875 54.382812 -94.4375 52.75 -94.4375 C 47.757812 -94.4375 45.265625 -91.671875 45.265625 -86.140625 L 45.265625 -75.71875 L 63.984375 -75.71875 L 63.984375 -52.4375 L 45.265625 -52.4375 L 45.265625 0 Z M 14.328125 0 "/></g></g></g><g fill="#ff00ff" fill-opacity="1"><g transform="translate(787.47181, 305.366994)"><g><path d="M 5.859375 8.625 C 10.859375 10.46875 15.09375 11.390625 18.5625 11.390625 C 25.1875 11.390625 28.820312 7.59375 29.46875 0 L -1.625 -85.640625 L 30.125 -85.640625 L 46.40625 -26.21875 L 59.59375 -85.640625 L 88.421875 -85.640625 L 59.4375 10.265625 C 58.132812 14.492188 56.285156 18.316406 53.890625 21.734375 C 51.503906 25.148438 48.65625 28.078125 45.34375 30.515625 C 42.03125 32.960938 38.363281 34.835938 34.34375 36.140625 C 30.332031 37.453125 26.15625 38.109375 21.8125 38.109375 C 16.28125 38.109375 10.960938 37.078125 5.859375 35.015625 Z M 5.859375 8.625 "/></g></g></g><g fill="#00ffff" fill-opacity="1"><g transform="translate(258.542527, 305.366994)"><g><path d="M 79.953125 -77.828125 C 76.691406 -79.785156 73.328125 -81.523438 69.859375 -83.046875 C 66.921875 -84.347656 63.632812 -85.566406 60 -86.703125 C 56.363281 -87.847656 52.8125 -88.421875 49.34375 -88.421875 C 46.519531 -88.421875 44.265625 -87.984375 42.578125 -87.109375 C 40.898438 -86.242188 40.0625 -84.78125 40.0625 -82.71875 C 40.0625 -81.195312 40.546875 -79.945312 41.515625 -78.96875 C 42.492188 -77.988281 43.90625 -77.09375 45.75 -76.28125 C 47.59375 -75.46875 49.84375 -74.679688 52.5 -73.921875 C 55.164062 -73.160156 58.179688 -72.238281 61.546875 -71.15625 C 66.867188 -69.53125 71.671875 -67.738281 75.953125 -65.78125 C 80.242188 -63.832031 83.910156 -61.523438 86.953125 -58.859375 C 89.992188 -56.203125 92.328125 -52.972656 93.953125 -49.171875 C 95.578125 -45.367188 96.390625 -40.753906 96.390625 -35.328125 C 96.390625 -28.378906 95.113281 -22.546875 92.5625 -17.828125 C 90.007812 -13.109375 86.644531 -9.335938 82.46875 -6.515625 C 78.289062 -3.691406 73.566406 -1.65625 68.296875 -0.40625 C 63.035156 0.84375 57.75 1.46875 52.4375 1.46875 C 48.195312 1.46875 43.851562 1.140625 39.40625 0.484375 C 34.957031 -0.160156 30.535156 -1.082031 26.140625 -2.28125 C 21.742188 -3.476562 17.507812 -4.890625 13.4375 -6.515625 C 9.363281 -8.140625 5.585938 -9.984375 2.109375 -12.046875 L 15.796875 -39.890625 C 19.597656 -37.503906 23.5625 -35.390625 27.6875 -33.546875 C 31.15625 -31.910156 35.085938 -30.441406 39.484375 -29.140625 C 43.878906 -27.835938 48.359375 -27.1875 52.921875 -27.1875 C 56.390625 -27.1875 58.800781 -27.644531 60.15625 -28.5625 C 61.519531 -29.488281 62.203125 -30.710938 62.203125 -32.234375 C 62.203125 -33.867188 61.519531 -35.253906 60.15625 -36.390625 C 58.800781 -37.535156 56.929688 -38.539062 54.546875 -39.40625 C 52.160156 -40.269531 49.421875 -41.132812 46.328125 -42 C 43.234375 -42.875 39.945312 -43.910156 36.46875 -45.109375 C 31.375 -46.835938 26.976562 -48.707031 23.28125 -50.71875 C 19.59375 -52.726562 16.550781 -55.007812 14.15625 -57.5625 C 11.769531 -60.113281 10.007812 -63.015625 8.875 -66.265625 C 7.738281 -69.523438 7.171875 -73.269531 7.171875 -77.5 C 7.171875 -83.90625 8.335938 -89.550781 10.671875 -94.4375 C 13.003906 -99.320312 16.175781 -103.390625 20.1875 -106.640625 C 24.207031 -109.898438 28.796875 -112.367188 33.953125 -114.046875 C 39.109375 -115.734375 44.5625 -116.578125 50.3125 -116.578125 C 54.550781 -116.578125 58.675781 -116.171875 62.6875 -115.359375 C 66.707031 -114.546875 70.585938 -113.515625 74.328125 -112.265625 C 78.078125 -111.015625 81.578125 -109.65625 84.828125 -108.1875 C 88.085938 -106.726562 91.019531 -105.347656 93.625 -104.046875 Z M 79.953125 -77.828125 "/></g></g></g><g fill="#00ffff" fill-opacity="1"><g transform="translate(359.004004, 305.366994)"><g><path d="M 33.046875 1.625 C 28.816406 1.625 24.851562 0.921875 21.15625 -0.484375 C 17.46875 -1.898438 14.296875 -3.828125 11.640625 -6.265625 C 8.984375 -8.710938 6.894531 -11.617188 5.375 -14.984375 C 3.851562 -18.347656 3.09375 -21.984375 3.09375 -25.890625 C 3.09375 -30.234375 4.015625 -34.195312 5.859375 -37.78125 C 7.703125 -41.363281 10.253906 -44.457031 13.515625 -47.0625 C 16.773438 -49.664062 20.65625 -51.671875 25.15625 -53.078125 C 29.664062 -54.492188 34.632812 -55.203125 40.0625 -55.203125 C 47.007812 -55.203125 52.757812 -54.113281 57.3125 -51.9375 L 57.3125 -54.546875 C 57.3125 -58.566406 56.144531 -61.550781 53.8125 -63.5 C 51.476562 -65.457031 47.707031 -66.4375 42.5 -66.4375 C 37.613281 -66.4375 33.109375 -65.648438 28.984375 -64.078125 C 24.859375 -62.503906 20.515625 -60.195312 15.953125 -57.15625 L 7 -76.359375 C 18.289062 -83.640625 31.15625 -87.28125 45.59375 -87.28125 C 59.269531 -87.28125 69.796875 -84.238281 77.171875 -78.15625 C 84.554688 -72.082031 88.25 -62.960938 88.25 -50.796875 L 88.25 -34.1875 C 88.25 -31.257812 88.789062 -29.222656 89.875 -28.078125 C 90.96875 -26.941406 92.925781 -26.265625 95.75 -26.046875 L 95.75 0 C 92.925781 0.539062 90.265625 0.945312 87.765625 1.21875 C 85.265625 1.488281 83.039062 1.625 81.09375 1.625 C 75.550781 1.625 71.34375 0.625 68.46875 -1.375 C 65.59375 -3.382812 63.722656 -6.347656 62.859375 -10.265625 L 62.203125 -13.359375 C 58.398438 -8.472656 54 -4.753906 49 -2.203125 C 44.007812 0.347656 38.691406 1.625 33.046875 1.625 Z M 42.328125 -20.515625 C 44.179688 -20.515625 46.082031 -20.8125 48.03125 -21.40625 C 49.988281 -22.007812 51.726562 -22.796875 53.25 -23.765625 C 54.4375 -24.640625 55.410156 -25.59375 56.171875 -26.625 C 56.929688 -27.65625 57.3125 -28.710938 57.3125 -29.796875 L 57.3125 -36.140625 C 55.46875 -36.796875 53.457031 -37.335938 51.28125 -37.765625 C 49.113281 -38.203125 47.160156 -38.421875 45.421875 -38.421875 C 41.628906 -38.421875 38.484375 -37.5 35.984375 -35.65625 C 33.484375 -33.8125 32.234375 -31.476562 32.234375 -28.65625 C 32.234375 -26.269531 33.179688 -24.316406 35.078125 -22.796875 C 36.984375 -21.273438 39.398438 -20.515625 42.328125 -20.515625 Z M 42.328125 -20.515625 "/></g></g></g><g fill="#00ffff" fill-opacity="1"><g transform="translate(457.348792, 305.366994)"><g><path d="M 93.953125 0 L 63.015625 0 L 63.015625 -48.203125 C 63.015625 -52.429688 62.0625 -55.492188 60.15625 -57.390625 C 58.257812 -59.296875 56.066406 -60.25 53.578125 -60.25 C 50.960938 -60.25 48.191406 -59.109375 45.265625 -56.828125 C 42.335938 -54.546875 40.164062 -51.613281 38.75 -48.03125 L 38.75 0 L 7.8125 0 L 7.8125 -85.640625 L 35.65625 -85.640625 L 35.65625 -72.953125 C 38.695312 -77.617188 42.957031 -81.171875 48.4375 -83.609375 C 53.925781 -86.054688 60.414062 -87.28125 67.90625 -87.28125 C 73.757812 -87.28125 78.394531 -86.21875 81.8125 -84.09375 C 85.238281 -81.976562 87.847656 -79.347656 89.640625 -76.203125 C 91.429688 -73.054688 92.597656 -69.691406 93.140625 -66.109375 C 93.679688 -62.523438 93.953125 -59.269531 93.953125 -56.34375 Z M 93.953125 0 "/></g></g></g><g fill="#00ffff" fill-opacity="1"><g transform="translate(558.461579, 305.366994)"><g><path d="M 43.640625 1.625 C 37.773438 1.625 32.375 0.539062 27.4375 -1.625 C 22.5 -3.800781 18.238281 -6.867188 14.65625 -10.828125 C 11.070312 -14.785156 8.273438 -19.503906 6.265625 -24.984375 C 4.253906 -30.472656 3.25 -36.472656 3.25 -42.984375 C 3.25 -49.285156 4.171875 -55.148438 6.015625 -60.578125 C 7.867188 -66.003906 10.445312 -70.695312 13.75 -74.65625 C 17.0625 -78.613281 21 -81.707031 25.5625 -83.9375 C 30.125 -86.164062 35.171875 -87.28125 40.703125 -87.28125 C 46.242188 -87.28125 51.320312 -86.03125 55.9375 -83.53125 C 60.550781 -81.03125 64.101562 -77.503906 66.59375 -72.953125 L 66.59375 -118.859375 L 97.53125 -118.859375 L 97.53125 -34.1875 C 97.53125 -31.257812 98.070312 -29.222656 99.15625 -28.078125 C 100.25 -26.941406 102.207031 -26.265625 105.03125 -26.046875 L 105.03125 0 C 101.875 0.539062 99.101562 0.945312 96.71875 1.21875 C 94.332031 1.488281 92.21875 1.625 90.375 1.625 C 79.84375 1.625 73.765625 -2.335938 72.140625 -10.265625 L 71.484375 -13.359375 C 68.546875 -8.140625 64.582031 -4.335938 59.59375 -1.953125 C 54.601562 0.429688 49.285156 1.625 43.640625 1.625 Z M 52.109375 -24.421875 C 57.753906 -24.421875 62.640625 -27.351562 66.765625 -33.21875 L 66.765625 -48.515625 C 65.242188 -52.316406 63.015625 -55.382812 60.078125 -57.71875 C 57.148438 -60.050781 54.054688 -61.21875 50.796875 -61.21875 C 48.523438 -61.21875 46.4375 -60.726562 44.53125 -59.75 C 42.632812 -58.78125 41.003906 -57.425781 39.640625 -55.6875 C 38.285156 -53.945312 37.203125 -51.9375 36.390625 -49.65625 C 35.578125 -47.382812 35.171875 -44.941406 35.171875 -42.328125 C 35.171875 -36.898438 36.71875 -32.554688 39.8125 -29.296875 C 42.90625 -26.046875 47.003906 -24.421875 52.109375 -24.421875 Z M 52.109375 -24.421875 "/></g></g></g><g fill="#00ffff" fill-opacity="1"><g transform="translate(667.878301, 305.366994)"><g><path d="M 7.8125 0 L 7.8125 -85.640625 L 38.75 -85.640625 L 38.75 0 Z M 7.8125 -92.8125 L 7.8125 -118.859375 L 38.75 -118.859375 L 38.75 -92.8125 Z M 7.8125 -92.8125 "/></g></g></g><g fill="#00ffff" fill-opacity="1"><g transform="translate(714.445547, 305.366994)"><g><path d="M 14.328125 0 L 14.328125 -52.4375 L 3.75 -52.4375 L 3.75 -75.71875 L 14.328125 -75.71875 L 14.328125 -85 C 14.328125 -90.3125 15.085938 -95.164062 16.609375 -99.5625 C 18.128906 -103.957031 20.242188 -107.703125 22.953125 -110.796875 C 25.671875 -113.890625 28.957031 -116.28125 32.8125 -117.96875 C 36.664062 -119.65625 40.976562 -120.5 45.75 -120.5 C 52.914062 -120.5 60.84375 -118.867188 69.53125 -115.609375 L 64.3125 -92.15625 C 62.46875 -92.8125 60.488281 -93.351562 58.375 -93.78125 C 56.257812 -94.21875 54.382812 -94.4375 52.75 -94.4375 C 47.757812 -94.4375 45.265625 -91.671875 45.265625 -86.140625 L 45.265625 -75.71875 L 63.984375 -75.71875 L 63.984375 -52.4375 L 45.265625 -52.4375 L 45.265625 0 Z M 14.328125 0 "/></g></g></g><g fill="#00ffff" fill-opacity="1"><g transform="translate(781.365597, 305.366994)"><g><path d="M 5.859375 8.625 C 10.859375 10.46875 15.09375 11.390625 18.5625 11.390625 C 25.1875 11.390625 28.820312 7.59375 29.46875 0 L -1.625 -85.640625 L 30.125 -85.640625 L 46.40625 -26.21875 L 59.59375 -85.640625 L 88.421875 -85.640625 L 59.4375 10.265625 C 58.132812 14.492188 56.285156 18.316406 53.890625 21.734375 C 51.503906 25.148438 48.65625 28.078125 45.34375 30.515625 C 42.03125 32.960938 38.363281 34.835938 34.34375 36.140625 C 30.332031 37.453125 26.15625 38.109375 21.8125 38.109375 C 16.28125 38.109375 10.960938 37.078125 5.859375 35.015625 Z M 5.859375 8.625 "/></g></g></g><g fill="#ffffff" fill-opacity="1"><g transform="translate(261.595633, 305.366994)"><g><path d="M 79.953125 -77.828125 C 76.691406 -79.785156 73.328125 -81.523438 69.859375 -83.046875 C 66.921875 -84.347656 63.632812 -85.566406 60 -86.703125 C 56.363281 -87.847656 52.8125 -88.421875 49.34375 -88.421875 C 46.519531 -88.421875 44.265625 -87.984375 42.578125 -87.109375 C 40.898438 -86.242188 40.0625 -84.78125 40.0625 -82.71875 C 40.0625 -81.195312 40.546875 -79.945312 41.515625 -78.96875 C 42.492188 -77.988281 43.90625 -77.09375 45.75 -76.28125 C 47.59375 -75.46875 49.84375 -74.679688 52.5 -73.921875 C 55.164062 -73.160156 58.179688 -72.238281 61.546875 -71.15625 C 66.867188 -69.53125 71.671875 -67.738281 75.953125 -65.78125 C 80.242188 -63.832031 83.910156 -61.523438 86.953125 -58.859375 C 89.992188 -56.203125 92.328125 -52.972656 93.953125 -49.171875 C 95.578125 -45.367188 96.390625 -40.753906 96.390625 -35.328125 C 96.390625 -28.378906 95.113281 -22.546875 92.5625 -17.828125 C 90.007812 -13.109375 86.644531 -9.335938 82.46875 -6.515625 C 78.289062 -3.691406 73.566406 -1.65625 68.296875 -0.40625 C 63.035156 0.84375 57.75 1.46875 52.4375 1.46875 C 48.195312 1.46875 43.851562 1.140625 39.40625 0.484375 C 34.957031 -0.160156 30.535156 -1.082031 26.140625 -2.28125 C 21.742188 -3.476562 17.507812 -4.890625 13.4375 -6.515625 C 9.363281 -8.140625 5.585938 -9.984375 2.109375 -12.046875 L 15.796875 -39.890625 C 19.597656 -37.503906 23.5625 -35.390625 27.6875 -33.546875 C 31.15625 -31.910156 35.085938 -30.441406 39.484375 -29.140625 C 43.878906 -27.835938 48.359375 -27.1875 52.921875 -27.1875 C 56.390625 -27.1875 58.800781 -27.644531 60.15625 -28.5625 C 61.519531 -29.488281 62.203125 -30.710938 62.203125 -32.234375 C 62.203125 -33.867188 61.519531 -35.253906 60.15625 -36.390625 C 58.800781 -37.535156 56.929688 -38.539062 54.546875 -39.40625 C 52.160156 -40.269531 49.421875 -41.132812 46.328125 -42 C 43.234375 -42.875 39.945312 -43.910156 36.46875 -45.109375 C 31.375 -46.835938 26.976562 -48.707031 23.28125 -50.71875 C 19.59375 -52.726562 16.550781 -55.007812 14.15625 -57.5625 C 11.769531 -60.113281 10.007812 -63.015625 8.875 -66.265625 C 7.738281 -69.523438 7.171875 -73.269531 7.171875 -77.5 C 7.171875 -83.90625 8.335938 -89.550781 10.671875 -94.4375 C 13.003906 -99.320312 16.175781 -103.390625 20.1875 -106.640625 C 24.207031 -109.898438 28.796875 -112.367188 33.953125 -114.046875 C 39.109375 -115.734375 44.5625 -116.578125 50.3125 -116.578125 C 54.550781 -116.578125 58.675781 -116.171875 62.6875 -115.359375 C 66.707031 -114.546875 70.585938 -113.515625 74.328125 -112.265625 C 78.078125 -111.015625 81.578125 -109.65625 84.828125 -108.1875 C 88.085938 -106.726562 91.019531 -105.347656 93.625 -104.046875 Z M 79.953125 -77.828125 "/></g></g></g><g fill="#ffffff" fill-opacity="1"><g transform="translate(362.057111, 305.366994)"><g><path d="M 33.046875 1.625 C 28.816406 1.625 24.851562 0.921875 21.15625 -0.484375 C 17.46875 -1.898438 14.296875 -3.828125 11.640625 -6.265625 C 8.984375 -8.710938 6.894531 -11.617188 5.375 -14.984375 C 3.851562 -18.347656 3.09375 -21.984375 3.09375 -25.890625 C 3.09375 -30.234375 4.015625 -34.195312 5.859375 -37.78125 C 7.703125 -41.363281 10.253906 -44.457031 13.515625 -47.0625 C 16.773438 -49.664062 20.65625 -51.671875 25.15625 -53.078125 C 29.664062 -54.492188 34.632812 -55.203125 40.0625 -55.203125 C 47.007812 -55.203125 52.757812 -54.113281 57.3125 -51.9375 L 57.3125 -54.546875 C 57.3125 -58.566406 56.144531 -61.550781 53.8125 -63.5 C 51.476562 -65.457031 47.707031 -66.4375 42.5 -66.4375 C 37.613281 -66.4375 33.109375 -65.648438 28.984375 -64.078125 C 24.859375 -62.503906 20.515625 -60.195312 15.953125 -57.15625 L 7 -76.359375 C 18.289062 -83.640625 31.15625 -87.28125 45.59375 -87.28125 C 59.269531 -87.28125 69.796875 -84.238281 77.171875 -78.15625 C 84.554688 -72.082031 88.25 -62.960938 88.25 -50.796875 L 88.25 -34.1875 C 88.25 -31.257812 88.789062 -29.222656 89.875 -28.078125 C 90.96875 -26.941406 92.925781 -26.265625 95.75 -26.046875 L 95.75 0 C 92.925781 0.539062 90.265625 0.945312 87.765625 1.21875 C 85.265625 1.488281 83.039062 1.625 81.09375 1.625 C 75.550781 1.625 71.34375 0.625 68.46875 -1.375 C 65.59375 -3.382812 63.722656 -6.347656 62.859375 -10.265625 L 62.203125 -13.359375 C 58.398438 -8.472656 54 -4.753906 49 -2.203125 C 44.007812 0.347656 38.691406 1.625 33.046875 1.625 Z M 42.328125 -20.515625 C 44.179688 -20.515625 46.082031 -20.8125 48.03125 -21.40625 C 49.988281 -22.007812 51.726562 -22.796875 53.25 -23.765625 C 54.4375 -24.640625 55.410156 -25.59375 56.171875 -26.625 C 56.929688 -27.65625 57.3125 -28.710938 57.3125 -29.796875 L 57.3125 -36.140625 C 55.46875 -36.796875 53.457031 -37.335938 51.28125 -37.765625 C 49.113281 -38.203125 47.160156 -38.421875 45.421875 -38.421875 C 41.628906 -38.421875 38.484375 -37.5 35.984375 -35.65625 C 33.484375 -33.8125 32.234375 -31.476562 32.234375 -28.65625 C 32.234375 -26.269531 33.179688 -24.316406 35.078125 -22.796875 C 36.984375 -21.273438 39.398438 -20.515625 42.328125 -20.515625 Z M 42.328125 -20.515625 "/></g></g></g><g fill="#ffffff" fill-opacity="1"><g transform="translate(460.401899, 305.366994)"><g><path d="M 93.953125 0 L 63.015625 0 L 63.015625 -48.203125 C 63.015625 -52.429688 62.0625 -55.492188 60.15625 -57.390625 C 58.257812 -59.296875 56.066406 -60.25 53.578125 -60.25 C 50.960938 -60.25 48.191406 -59.109375 45.265625 -56.828125 C 42.335938 -54.546875 40.164062 -51.613281 38.75 -48.03125 L 38.75 0 L 7.8125 0 L 7.8125 -85.640625 L 35.65625 -85.640625 L 35.65625 -72.953125 C 38.695312 -77.617188 42.957031 -81.171875 48.4375 -83.609375 C 53.925781 -86.054688 60.414062 -87.28125 67.90625 -87.28125 C 73.757812 -87.28125 78.394531 -86.21875 81.8125 -84.09375 C 85.238281 -81.976562 87.847656 -79.347656 89.640625 -76.203125 C 91.429688 -73.054688 92.597656 -69.691406 93.140625 -66.109375 C 93.679688 -62.523438 93.953125 -59.269531 93.953125 -56.34375 Z M 93.953125 0 "/></g></g></g><g fill="#ffffff" fill-opacity="1"><g transform="translate(561.514686, 305.366994)"><g><path d="M 43.640625 1.625 C 37.773438 1.625 32.375 0.539062 27.4375 -1.625 C 22.5 -3.800781 18.238281 -6.867188 14.65625 -10.828125 C 11.070312 -14.785156 8.273438 -19.503906 6.265625 -24.984375 C 4.253906 -30.472656 3.25 -36.472656 3.25 -42.984375 C 3.25 -49.285156 4.171875 -55.148438 6.015625 -60.578125 C 7.867188 -66.003906 10.445312 -70.695312 13.75 -74.65625 C 17.0625 -78.613281 21 -81.707031 25.5625 -83.9375 C 30.125 -86.164062 35.171875 -87.28125 40.703125 -87.28125 C 46.242188 -87.28125 51.320312 -86.03125 55.9375 -83.53125 C 60.550781 -81.03125 64.101562 -77.503906 66.59375 -72.953125 L 66.59375 -118.859375 L 97.53125 -118.859375 L 97.53125 -34.1875 C 97.53125 -31.257812 98.070312 -29.222656 99.15625 -28.078125 C 100.25 -26.941406 102.207031 -26.265625 105.03125 -26.046875 L 105.03125 0 C 101.875 0.539062 99.101562 0.945312 96.71875 1.21875 C 94.332031 1.488281 92.21875 1.625 90.375 1.625 C 79.84375 1.625 73.765625 -2.335938 72.140625 -10.265625 L 71.484375 -13.359375 C 68.546875 -8.140625 64.582031 -4.335938 59.59375 -1.953125 C 54.601562 0.429688 49.285156 1.625 43.640625 1.625 Z M 52.109375 -24.421875 C 57.753906 -24.421875 62.640625 -27.351562 66.765625 -33.21875 L 66.765625 -48.515625 C 65.242188 -52.316406 63.015625 -55.382812 60.078125 -57.71875 C 57.148438 -60.050781 54.054688 -61.21875 50.796875 -61.21875 C 48.523438 -61.21875 46.4375 -60.726562 44.53125 -59.75 C 42.632812 -58.78125 41.003906 -57.425781 39.640625 -55.6875 C 38.285156 -53.945312 37.203125 -51.9375 36.390625 -49.65625 C 35.578125 -47.382812 35.171875 -44.941406 35.171875 -42.328125 C 35.171875 -36.898438 36.71875 -32.554688 39.8125 -29.296875 C 42.90625 -26.046875 47.003906 -24.421875 52.109375 -24.421875 Z M 52.109375 -24.421875 "/></g></g></g><g fill="#ffffff" fill-opacity="1"><g transform="translate(670.931408, 305.366994)"><g><path d="M 7.8125 0 L 7.8125 -85.640625 L 38.75 -85.640625 L 38.75 0 Z M 7.8125 -92.8125 L 7.8125 -118.859375 L 38.75 -118.859375 L 38.75 -92.8125 Z M 7.8125 -92.8125 "/></g></g></g><g fill="#ffffff" fill-opacity="1"><g transform="translate(717.498654, 305.366994)"><g><path d="M 14.328125 0 L 14.328125 -52.4375 L 3.75 -52.4375 L 3.75 -75.71875 L 14.328125 -75.71875 L 14.328125 -85 C 14.328125 -90.3125 15.085938 -95.164062 16.609375 -99.5625 C 18.128906 -103.957031 20.242188 -107.703125 22.953125 -110.796875 C 25.671875 -113.890625 28.957031 -116.28125 32.8125 -117.96875 C 36.664062 -119.65625 40.976562 -120.5 45.75 -120.5 C 52.914062 -120.5 60.84375 -118.867188 69.53125 -115.609375 L 64.3125 -92.15625 C 62.46875 -92.8125 60.488281 -93.351562 58.375 -93.78125 C 56.257812 -94.21875 54.382812 -94.4375 52.75 -94.4375 C 47.757812 -94.4375 45.265625 -91.671875 45.265625 -86.140625 L 45.265625 -75.71875 L 63.984375 -75.71875 L 63.984375 -52.4375 L 45.265625 -52.4375 L 45.265625 0 Z M 14.328125 0 "/></g></g></g><g fill="#ffffff" fill-opacity="1"><g transform="translate(784.418704, 305.366994)"><g><path d="M 5.859375 8.625 C 10.859375 10.46875 15.09375 11.390625 18.5625 11.390625 C 25.1875 11.390625 28.820312 7.59375 29.46875 0 L -1.625 -85.640625 L 30.125 -85.640625 L 46.40625 -26.21875 L 59.59375 -85.640625 L 88.421875 -85.640625 L 59.4375 10.265625 C 58.132812 14.492188 56.285156 18.316406 53.890625 21.734375 C 51.503906 25.148438 48.65625 28.078125 45.34375 30.515625 C 42.03125 32.960938 38.363281 34.835938 34.34375 36.140625 C 30.332031 37.453125 26.15625 38.109375 21.8125 38.109375 C 16.28125 38.109375 10.960938 37.078125 5.859375 35.015625 Z M 5.859375 8.625 "/></g></g></g></svg>